<?xml version="1.0" encoding="us-ascii" standalone="no"?><svg xmlns="http://www.w3.org/2000/svg" xmlns:xlink="http://www.w3.org/1999/xlink" contentStyleType="text/css" height="2486px" preserveAspectRatio="none" style="width:2282px;height:2486px;background:#FFFFFF;" version="1.1" viewBox="0 0 2282 2486" width="2282px" zoomAndPan="magnify"><defs/><g><text fill="#000000" font-family="sans-serif" font-size="14" font-weight="bold" lengthAdjust="spacing" textLength="614" x="830" y="27.9951">Laboratorio CI/CD - Secuencia (Jenkins -&gt; Build -&gt; Nexus -&gt; Deploy -&gt; Smoke)</text><rect fill="#FFFFFF" height="2016.9063" style="stroke:#95A5A6;stroke-width:1.0;" width="10" x="519.5" y="452.5156"/><rect fill="#FFFFFF" height="1987.7734" style="stroke:#95A5A6;stroke-width:1.0;" width="10" x="702.5" y="481.6484"/><rect fill="#FFFFFF" height="87.3984" style="stroke:#95A5A6;stroke-width:1.0;" width="10" x="915.5" y="775.1094"/><rect fill="none" height="46.2656" style="stroke:#BDC3C7;stroke-width:1.5;" width="399.5" x="202" y="334.9844"/><rect fill="none" height="133.6641" style="stroke:#BDC3C7;stroke-width:1.5;" width="539.5" x="633" y="736.8438"/><rect fill="none" height="75.3984" style="stroke:#BDC3C7;stroke-width:1.5;" width="789.5" x="633" y="977.9063"/><rect fill="none" height="191.9297" style="stroke:#BDC3C7;stroke-width:1.5;" width="915.5" x="633" y="1110.4375"/><rect fill="none" height="191.9297" style="stroke:#BDC3C7;stroke-width:1.5;" width="1261" x="633" y="1424.8984"/><rect fill="none" height="155.6016" style="stroke:#BDC3C7;stroke-width:1.5;" width="381" x="1884" y="1886.1563"/><rect fill="none" height="133.6641" style="stroke:#BDC3C7;stroke-width:1.5;" width="1483" x="633" y="2098.8906"/><rect fill="none" height="215.8672" style="stroke:#BDC3C7;stroke-width:1.5;" width="1482.5" x="447.5" y="2246.5547"/><rect fill="none" height="111.6641" style="stroke:#BDC3C7;stroke-width:1.5;" width="1287" x="633" y="2343.7578"/><line style="stroke:#95A5A6;stroke-width:0.5;stroke-dasharray:5.0,5.0;" x1="74" x2="74" y1="137.1875" y2="2479.4219"/><line style="stroke:#95A5A6;stroke-width:0.5;stroke-dasharray:5.0,5.0;" x1="162.5" x2="162.5" y1="137.1875" y2="2479.4219"/><line style="stroke:#95A5A6;stroke-width:0.5;stroke-dasharray:5.0,5.0;" x1="292" x2="292" y1="137.1875" y2="2479.4219"/><line style="stroke:#95A5A6;stroke-width:0.5;stroke-dasharray:5.0,5.0;" x1="524.5" x2="524.5" y1="137.1875" y2="2479.4219"/><line style="stroke:#95A5A6;stroke-width:0.5;stroke-dasharray:5.0,5.0;" x1="707" x2="707" y1="137.1875" y2="2479.4219"/><line style="stroke:#95A5A6;stroke-width:0.5;stroke-dasharray:5.0,5.0;" x1="920" x2="920" y1="137.1875" y2="2479.4219"/><line style="stroke:#95A5A6;stroke-width:0.5;stroke-dasharray:5.0,5.0;" x1="1110.5" x2="1110.5" y1="137.1875" y2="2479.4219"/><line style="stroke:#95A5A6;stroke-width:0.5;stroke-dasharray:5.0,5.0;" x1="1292.5" x2="1292.5" y1="137.1875" y2="2479.4219"/><line style="stroke:#95A5A6;stroke-width:0.5;stroke-dasharray:5.0,5.0;" x1="1480.5" x2="1480.5" y1="137.1875" y2="2479.4219"/><line style="stroke:#95A5A6;stroke-width:0.5;stroke-dasharray:5.0,5.0;" x1="1692" x2="1692" y1="137.1875" y2="2479.4219"/><line style="stroke:#95A5A6;stroke-width:0.5;stroke-dasharray:5.0,5.0;" x1="1827" x2="1827" y1="137.1875" y2="2479.4219"/><line style="stroke:#95A5A6;stroke-width:0.5;stroke-dasharray:5.0,5.0;" x1="2000" x2="2000" y1="137.1875" y2="2479.4219"/><line style="stroke:#95A5A6;stroke-width:0.5;stroke-dasharray:5.0,5.0;" x1="2185" x2="2185" y1="137.1875" y2="2479.4219"/><text fill="#000000" font-family="sans-serif" font-size="14" lengthAdjust="spacing" textLength="71" x="36" y="133.8857">Developer</text><ellipse cx="74.5" cy="69.3906" fill="#E2E2F0" rx="8" ry="8" style="stroke:#181818;stroke-width:0.5;"/><path d="M74.5,77.3906 L74.5,104.3906 M61.5,85.3906 L87.5,85.3906 M74.5,104.3906 L61.5,119.3906 M74.5,104.3906 L87.5,119.3906 " fill="none" style="stroke:#181818;stroke-width:0.5;"/><rect fill="#ECF0F1" height="30.2969" rx="2.5" ry="2.5" style="stroke:#34495E;stroke-width:0.5;" width="78" x="123.5" y="105.8906"/><text fill="#000000" font-family="sans-serif" font-size="14" lengthAdjust="spacing" textLength="64" x="130.5" y="125.8857">Git (local)</text><rect fill="#ECF0F1" height="30.2969" rx="2.5" ry="2.5" style="stroke:#34495E;stroke-width:0.5;" width="161" x="212" y="105.8906"/><text fill="#000000" font-family="sans-serif" font-size="14" lengthAdjust="spacing" textLength="147" x="219" y="125.8857">GitHub (remote repo)</text><rect fill="#ECF0F1" height="30.2969" rx="2.5" ry="2.5" style="stroke:#34495E;stroke-width:0.5;" width="134" x="457.5" y="105.8906"/><text fill="#000000" font-family="sans-serif" font-size="14" lengthAdjust="spacing" textLength="120" x="464.5" y="125.8857">Jenkins Controller</text><rect fill="#ECF0F1" height="46.5938" rx="2.5" ry="2.5" style="stroke:#34495E;stroke-width:0.5;" width="129" x="643" y="89.5938"/><text fill="#000000" font-family="sans-serif" font-size="14" lengthAdjust="spacing" textLength="94" x="660.5" y="109.5889">Jenkins Agent</text><text fill="#000000" font-family="sans-serif" font-size="14" lengthAdjust="spacing" textLength="115" x="650" y="125.8857">(agent-maven-2)</text><rect fill="#ECF0F1" height="30.2969" rx="2.5" ry="2.5" style="stroke:#34495E;stroke-width:0.5;" width="59" x="891" y="105.8906"/><text fill="#000000" font-family="sans-serif" font-size="14" lengthAdjust="spacing" textLength="45" x="898" y="125.8857">Maven</text><text fill="#000000" font-family="sans-serif" font-size="14" lengthAdjust="spacing" textLength="98" x="1058.5" y="133.8857">Maven Central</text><path d="M1092.5,84.8906 C1092.5,74.8906 1110.5,74.8906 1110.5,74.8906 C1110.5,74.8906 1128.5,74.8906 1128.5,84.8906 L1128.5,110.8906 C1128.5,120.8906 1110.5,120.8906 1110.5,120.8906 C1110.5,120.8906 1092.5,120.8906 1092.5,110.8906 L1092.5,84.8906 " fill="#E2E2F0" style="stroke:#181818;stroke-width:1.5;"/><path d="M1092.5,84.8906 C1092.5,94.8906 1110.5,94.8906 1110.5,94.8906 C1110.5,94.8906 1128.5,94.8906 1128.5,84.8906 " fill="none" style="stroke:#181818;stroke-width:1.5;"/><rect fill="#ECF0F1" height="79.1875" rx="2.5" ry="2.5" style="stroke:#34495E;stroke-width:0.5;" width="240" x="1172.5" y="57"/><text fill="#000000" font-family="sans-serif" font-size="14" font-style="italic" lengthAdjust="spacing" textLength="54" x="1265.5" y="76.9951">&#171;node&#187;</text><text fill="#000000" font-family="sans-serif" font-size="14" lengthAdjust="spacing" textLength="43" x="1271" y="93.292">Nexus</text><text fill="#000000" font-family="sans-serif" font-size="14" lengthAdjust="spacing" textLength="226" x="1179.5" y="109.5889">(Maven Repo + Docker Registry)</text><text fill="#000000" font-family="sans-serif" font-size="14" lengthAdjust="spacing" textLength="103" x="1241" y="125.8857">localhost:8082</text><rect fill="#ECF0F1" height="30.2969" rx="2.5" ry="2.5" style="stroke:#34495E;stroke-width:0.5;" width="116" x="1422.5" y="105.8906"/><text fill="#000000" font-family="sans-serif" font-size="14" lengthAdjust="spacing" textLength="102" x="1429.5" y="125.8857">Docker Engine</text><rect fill="#ECF0F1" height="30.2969" rx="2.5" ry="2.5" style="stroke:#34495E;stroke-width:0.5;" width="135" x="1625" y="105.8906"/><text fill="#000000" font-family="sans-serif" font-size="14" lengthAdjust="spacing" textLength="121" x="1632" y="125.8857">Docker Compose</text><rect fill="#ECF0F1" height="62.8906" rx="2.5" ry="2.5" style="stroke:#34495E;stroke-width:0.5;" width="114" x="1770" y="73.2969"/><text fill="#000000" font-family="sans-serif" font-size="14" font-style="italic" lengthAdjust="spacing" textLength="48" x="1803" y="93.292">&#171;host&#187;</text><text fill="#000000" font-family="sans-serif" font-size="14" lengthAdjust="spacing" textLength="74" x="1790" y="109.5889">DESA Host</text><text fill="#000000" font-family="sans-serif" font-size="14" lengthAdjust="spacing" textLength="100" x="1777" y="125.8857">(/deploy/desa)</text><rect fill="#ECF0F1" height="62.8906" rx="2.5" ry="2.5" style="stroke:#34495E;stroke-width:0.5;" width="212" x="1894" y="73.2969"/><text fill="#000000" font-family="sans-serif" font-size="14" font-style="italic" lengthAdjust="spacing" textLength="83" x="1958.5" y="93.292">&#171;container&#187;</text><text fill="#000000" font-family="sans-serif" font-size="14" lengthAdjust="spacing" textLength="198" x="1901" y="109.5889">Container: hola-mundo-desa</text><text fill="#000000" font-family="sans-serif" font-size="14" lengthAdjust="spacing" textLength="91" x="1954.5" y="125.8857">(Spring Boot)</text><text fill="#000000" font-family="sans-serif" font-size="14" font-style="italic" lengthAdjust="spacing" textLength="83" x="2141" y="101.292">&#171;container&#187;</text><text fill="#000000" font-family="sans-serif" font-size="14" lengthAdjust="spacing" textLength="133" x="2116" y="117.5889">Container: pg-desa</text><text fill="#000000" font-family="sans-serif" font-size="14" lengthAdjust="spacing" textLength="113" x="2126" y="133.8857">(PostgreSQL 16)</text><path d="M2167.5,52.2969 C2167.5,42.2969 2185.5,42.2969 2185.5,42.2969 C2185.5,42.2969 2203.5,42.2969 2203.5,52.2969 L2203.5,78.2969 C2203.5,88.2969 2185.5,88.2969 2185.5,88.2969 C2185.5,88.2969 2167.5,88.2969 2167.5,78.2969 L2167.5,52.2969 " fill="#E2E2F0" style="stroke:#181818;stroke-width:1.5;"/><path d="M2167.5,52.2969 C2167.5,62.2969 2185.5,62.2969 2185.5,62.2969 C2185.5,62.2969 2203.5,62.2969 2203.5,52.2969 " fill="none" style="stroke:#181818;stroke-width:1.5;"/><rect fill="#FFFFFF" height="2016.9063" style="stroke:#95A5A6;stroke-width:1.0;" width="10" x="519.5" y="452.5156"/><rect fill="#FFFFFF" height="1987.7734" style="stroke:#95A5A6;stroke-width:1.0;" width="10" x="702.5" y="481.6484"/><rect fill="#FFFFFF" height="87.3984" style="stroke:#95A5A6;stroke-width:1.0;" width="10" x="915.5" y="775.1094"/><path d="M5,152.1875 L5,192.1875 L363,192.1875 L363,162.1875 L353,152.1875 L5,152.1875 " fill="#FEFFDD" style="stroke:#181818;stroke-width:0.5;"/><path d="M353,152.1875 L353,162.1875 L363,162.1875 L353,152.1875 " fill="#FEFFDD" style="stroke:#181818;stroke-width:0.5;"/><text fill="#000000" font-family="sans-serif" font-size="13" lengthAdjust="spacing" textLength="337" x="11" y="169.2544">Repositorio: app + Jenkinsfile + docker-compose.yml</text><text fill="#000000" font-family="sans-serif" font-size="13" lengthAdjust="spacing" textLength="284" x="11" y="184.3872">Estrategia: build inmutable (tag por commit)</text><rect fill="#EEEEEE" height="3" style="stroke:#EEEEEE;stroke-width:1.0;" width="2275" x="0" y="218.0195"/><line style="stroke:#000000;stroke-width:1.0;" x1="0" x2="2275" y1="218.0195" y2="218.0195"/><line style="stroke:#000000;stroke-width:1.0;" x1="0" x2="2275" y1="221.0195" y2="221.0195"/><rect fill="#EEEEEE" height="23.1328" style="stroke:#000000;stroke-width:2.0;" width="170" x="1052.5" y="207.4531"/><text fill="#000000" font-family="sans-serif" font-size="13" font-weight="bold" lengthAdjust="spacing" textLength="151" x="1058.5" y="223.52">1) Commit &amp; Trigger</text><polygon fill="#2C3E50" points="150.5,257.7188,160.5,261.7188,150.5,265.7188,154.5,261.7188" style="stroke:#2C3E50;stroke-width:1.0;"/><line style="stroke:#2C3E50;stroke-width:1.0;" x1="74.5" x2="156.5" y1="261.7188" y2="261.7188"/><text fill="#000000" font-family="sans-serif" font-size="13" font-weight="bold" lengthAdjust="spacing" textLength="9" x="81.5" y="256.6528">1</text><text fill="#000000" font-family="sans-serif" font-size="13" lengthAdjust="spacing" textLength="49" x="94.5" y="256.6528">commit</text><polygon fill="#2C3E50" points="150.5,286.8516,160.5,290.8516,150.5,294.8516,154.5,290.8516" style="stroke:#2C3E50;stroke-width:1.0;"/><line style="stroke:#2C3E50;stroke-width:1.0;" x1="74.5" x2="156.5" y1="290.8516" y2="290.8516"/><text fill="#000000" font-family="sans-serif" font-size="13" font-weight="bold" lengthAdjust="spacing" textLength="9" x="81.5" y="285.7856">2</text><text fill="#000000" font-family="sans-serif" font-size="13" lengthAdjust="spacing" textLength="51" x="94.5" y="285.7856">git push</text><polygon fill="#2C3E50" points="280.5,315.9844,290.5,319.9844,280.5,323.9844,284.5,319.9844" style="stroke:#2C3E50;stroke-width:1.0;"/><line style="stroke:#2C3E50;stroke-width:1.0;" x1="162.5" x2="286.5" y1="319.9844" y2="319.9844"/><text fill="#000000" font-family="sans-serif" font-size="13" font-weight="bold" lengthAdjust="spacing" textLength="9" x="169.5" y="314.9185">3</text><text fill="#000000" font-family="sans-serif" font-size="13" lengthAdjust="spacing" textLength="93" x="182.5" y="314.9185">git push (SSH)</text><path d="M202,334.9844 L272,334.9844 L272,342.1172 L262,352.1172 L202,352.1172 L202,334.9844 " fill="#FBFCFC" style="stroke:#BDC3C7;stroke-width:1.5;"/><rect fill="none" height="46.2656" style="stroke:#BDC3C7;stroke-width:1.5;" width="399.5" x="202" y="334.9844"/><text fill="#000000" font-family="sans-serif" font-size="13" font-weight="bold" lengthAdjust="spacing" textLength="25" x="217" y="348.0513">opt</text><text fill="#000000" font-family="sans-serif" font-size="11" font-weight="bold" lengthAdjust="spacing" textLength="138" x="287" y="347.1948">[Webhook / Poll SCM]</text><polygon fill="#2C3E50" points="512.5,369.25,522.5,373.25,512.5,377.25,516.5,373.25" style="stroke:#2C3E50;stroke-width:1.0;"/><line style="stroke:#2C3E50;stroke-width:1.0;" x1="292.5" x2="518.5" y1="373.25" y2="373.25"/><text fill="#000000" font-family="sans-serif" font-size="13" font-weight="bold" lengthAdjust="spacing" textLength="9" x="299.5" y="368.1841">4</text><text fill="#000000" font-family="sans-serif" font-size="13" lengthAdjust="spacing" textLength="195" x="312.5" y="368.1841">notify / Jenkins detecta cambio</text><rect fill="#EEEEEE" height="3" style="stroke:#EEEEEE;stroke-width:1.0;" width="2275" x="0" y="408.8164"/><line style="stroke:#000000;stroke-width:1.0;" x1="0" x2="2275" y1="408.8164" y2="408.8164"/><line style="stroke:#000000;stroke-width:1.0;" x1="0" x2="2275" y1="411.8164" y2="411.8164"/><rect fill="#EEEEEE" height="23.1328" style="stroke:#000000;stroke-width:2.0;" width="194" x="1040.5" y="398.25"/><text fill="#000000" font-family="sans-serif" font-size="13" font-weight="bold" lengthAdjust="spacing" textLength="175" x="1046.5" y="414.3169">2) Orquestaci&#243;n Jenkins</text><polygon fill="#2C3E50" points="507.5,448.5156,517.5,452.5156,507.5,456.5156,511.5,452.5156" style="stroke:#2C3E50;stroke-width:1.0;"/><line style="stroke:#2C3E50;stroke-width:1.0;" x1="74.5" x2="513.5" y1="452.5156" y2="452.5156"/><text fill="#000000" font-family="sans-serif" font-size="13" font-weight="bold" lengthAdjust="spacing" textLength="9" x="81.5" y="447.4497">5</text><text fill="#000000" font-family="sans-serif" font-size="13" lengthAdjust="spacing" textLength="160" x="94.5" y="447.4497">Run pipeline (ENV=desa)</text><polygon fill="#2C3E50" points="690.5,477.6484,700.5,481.6484,690.5,485.6484,694.5,481.6484" style="stroke:#2C3E50;stroke-width:1.0;"/><line style="stroke:#2C3E50;stroke-width:1.0;" x1="529.5" x2="696.5" y1="481.6484" y2="481.6484"/><text fill="#000000" font-family="sans-serif" font-size="13" font-weight="bold" lengthAdjust="spacing" textLength="9" x="536.5" y="476.5825">6</text><text fill="#000000" font-family="sans-serif" font-size="13" lengthAdjust="spacing" textLength="141" x="549.5" y="476.5825">schedule job on agent</text><path d="M717,494.6484 L717,579.6484 L922,579.6484 L922,504.6484 L912,494.6484 L717,494.6484 " fill="#FEFFDD" style="stroke:#181818;stroke-width:0.5;"/><path d="M912,494.6484 L912,504.6484 L922,504.6484 L912,494.6484 " fill="#FEFFDD" style="stroke:#181818;stroke-width:0.5;"/><text fill="#000000" font-family="sans-serif" font-size="13" lengthAdjust="spacing" textLength="111" x="723" y="511.7153">Workspace limpio</text><text fill="#000000" font-family="sans-serif" font-size="13" lengthAdjust="spacing" textLength="108" x="723" y="526.8481">Variables t&#237;picas:</text><text fill="#000000" font-family="sans-serif" font-size="13" lengthAdjust="spacing" textLength="87" x="723" y="541.981">- GIT_COMMIT</text><text fill="#000000" font-family="sans-serif" font-size="13" lengthAdjust="spacing" textLength="184" x="723" y="557.1138">- APP_VERSION / IMAGE_TAG</text><text fill="#000000" font-family="sans-serif" font-size="13" lengthAdjust="spacing" textLength="78" x="723" y="572.2466">- ENV=desa</text><rect fill="#EEEEEE" height="3" style="stroke:#EEEEEE;stroke-width:1.0;" width="2275" x="0" y="605.8789"/><line style="stroke:#000000;stroke-width:1.0;" x1="0" x2="2275" y1="605.8789" y2="605.8789"/><line style="stroke:#000000;stroke-width:1.0;" x1="0" x2="2275" y1="608.8789" y2="608.8789"/><rect fill="#EEEEEE" height="23.1328" style="stroke:#000000;stroke-width:2.0;" width="108" x="1083.5" y="595.3125"/><text fill="#000000" font-family="sans-serif" font-size="13" font-weight="bold" lengthAdjust="spacing" textLength="89" x="1089.5" y="611.3794">3) Checkout</text><polygon fill="#2C3E50" points="303.5,645.5781,293.5,649.5781,303.5,653.5781,299.5,649.5781" style="stroke:#2C3E50;stroke-width:1.0;"/><line style="stroke:#2C3E50;stroke-width:1.0;" x1="297.5" x2="701.5" y1="649.5781" y2="649.5781"/><text fill="#000000" font-family="sans-serif" font-size="13" font-weight="bold" lengthAdjust="spacing" textLength="9" x="309.5" y="644.5122">7</text><text fill="#000000" font-family="sans-serif" font-size="13" lengthAdjust="spacing" textLength="242" x="322.5" y="644.5122">git fetch / checkout main@&lt;commit&gt;</text><polygon fill="#2C3E50" points="690.5,674.7109,700.5,678.7109,690.5,682.7109,694.5,678.7109" style="stroke:#2C3E50;stroke-width:1.0;"/><line style="stroke:#2C3E50;stroke-width:1.0;stroke-dasharray:2.0,2.0;" x1="292.5" x2="696.5" y1="678.7109" y2="678.7109"/><text fill="#000000" font-family="sans-serif" font-size="13" font-weight="bold" lengthAdjust="spacing" textLength="9" x="299.5" y="673.645">8</text><text fill="#000000" font-family="sans-serif" font-size="13" lengthAdjust="spacing" textLength="87" x="312.5" y="673.645">c&#243;digo fuente</text><rect fill="#EEEEEE" height="3" style="stroke:#EEEEEE;stroke-width:1.0;" width="2275" x="0" y="707.2773"/><line style="stroke:#000000;stroke-width:1.0;" x1="0" x2="2275" y1="707.2773" y2="707.2773"/><line style="stroke:#000000;stroke-width:1.0;" x1="0" x2="2275" y1="710.2773" y2="710.2773"/><rect fill="#EEEEEE" height="23.1328" style="stroke:#000000;stroke-width:2.0;" width="129" x="1073" y="696.7109"/><text fill="#000000" font-family="sans-serif" font-size="13" font-weight="bold" lengthAdjust="spacing" textLength="110" x="1079" y="712.7778">4) Build Maven</text><path d="M633,736.8438 L807,736.8438 L807,743.9766 L797,753.9766 L633,753.9766 L633,736.8438 " fill="#FBFCFC" style="stroke:#BDC3C7;stroke-width:1.5;"/><rect fill="none" height="133.6641" style="stroke:#BDC3C7;stroke-width:1.5;" width="539.5" x="633" y="736.8438"/><text fill="#000000" font-family="sans-serif" font-size="13" font-weight="bold" lengthAdjust="spacing" textLength="129" x="648" y="749.9106">Build + Unit tests</text><polygon fill="#2C3E50" points="903.5,771.1094,913.5,775.1094,903.5,779.1094,907.5,775.1094" style="stroke:#2C3E50;stroke-width:1.0;"/><line style="stroke:#2C3E50;stroke-width:1.0;" x1="712.5" x2="909.5" y1="775.1094" y2="775.1094"/><text fill="#000000" font-family="sans-serif" font-size="13" font-weight="bold" lengthAdjust="spacing" textLength="9" x="719.5" y="770.0435">9</text><text fill="#000000" font-family="sans-serif" font-size="13" lengthAdjust="spacing" textLength="171" x="732.5" y="770.0435">mvn -B clean test package</text><polygon fill="#2C3E50" points="1098.5,800.2422,1108.5,804.2422,1098.5,808.2422,1102.5,804.2422" style="stroke:#2C3E50;stroke-width:1.0;"/><line style="stroke:#2C3E50;stroke-width:1.0;" x1="925.5" x2="1104.5" y1="804.2422" y2="804.2422"/><text fill="#000000" font-family="sans-serif" font-size="13" font-weight="bold" lengthAdjust="spacing" textLength="18" x="932.5" y="799.1763">10</text><text fill="#000000" font-family="sans-serif" font-size="13" lengthAdjust="spacing" textLength="139" x="954.5" y="799.1763">resolve dependencias</text><polygon fill="#2C3E50" points="936.5,829.375,926.5,833.375,936.5,837.375,932.5,833.375" style="stroke:#2C3E50;stroke-width:1.0;"/><line style="stroke:#2C3E50;stroke-width:1.0;stroke-dasharray:2.0,2.0;" x1="930.5" x2="1109.5" y1="833.375" y2="833.375"/><text fill="#000000" font-family="sans-serif" font-size="13" font-weight="bold" lengthAdjust="spacing" textLength="18" x="942.5" y="828.3091">11</text><text fill="#000000" font-family="sans-serif" font-size="13" lengthAdjust="spacing" textLength="63" x="964.5" y="828.3091">jars/poms</text><polygon fill="#2C3E50" points="723.5,858.5078,713.5,862.5078,723.5,866.5078,719.5,862.5078" style="stroke:#2C3E50;stroke-width:1.0;"/><line style="stroke:#2C3E50;stroke-width:1.0;stroke-dasharray:2.0,2.0;" x1="717.5" x2="919.5" y1="862.5078" y2="862.5078"/><text fill="#000000" font-family="sans-serif" font-size="13" font-weight="bold" lengthAdjust="spacing" textLength="18" x="729.5" y="857.4419">12</text><text fill="#000000" font-family="sans-serif" font-size="13" lengthAdjust="spacing" textLength="87" x="751.5" y="857.4419">target/app.jar</text><path d="M717,882.5078 L717,922.5078 L866,922.5078 L866,892.5078 L856,882.5078 L717,882.5078 " fill="#FEFFDD" style="stroke:#181818;stroke-width:0.5;"/><path d="M856,882.5078 L856,892.5078 L866,892.5078 L856,882.5078 " fill="#FEFFDD" style="stroke:#181818;stroke-width:0.5;"/><text fill="#000000" font-family="sans-serif" font-size="13" lengthAdjust="spacing" textLength="128" x="723" y="899.5747">Artefacto generado:</text><text fill="#000000" font-family="sans-serif" font-size="13" lengthAdjust="spacing" textLength="96" x="723" y="914.7075">- target/app.jar</text><rect fill="#EEEEEE" height="3" style="stroke:#EEEEEE;stroke-width:1.0;" width="2275" x="0" y="948.3398"/><line style="stroke:#000000;stroke-width:1.0;" x1="0" x2="2275" y1="948.3398" y2="948.3398"/><line style="stroke:#000000;stroke-width:1.0;" x1="0" x2="2275" y1="951.3398" y2="951.3398"/><rect fill="#EEEEEE" height="23.1328" style="stroke:#000000;stroke-width:2.0;" width="252" x="1011.5" y="937.7734"/><text fill="#000000" font-family="sans-serif" font-size="13" font-weight="bold" lengthAdjust="spacing" textLength="233" x="1017.5" y="953.8403">5) Publicaci&#243;n a Nexus (Maven)</text><path d="M633,977.9063 L703,977.9063 L703,985.0391 L693,995.0391 L633,995.0391 L633,977.9063 " fill="#FBFCFC" style="stroke:#BDC3C7;stroke-width:1.5;"/><rect fill="none" height="75.3984" style="stroke:#BDC3C7;stroke-width:1.5;" width="789.5" x="633" y="977.9063"/><text fill="#000000" font-family="sans-serif" font-size="13" font-weight="bold" lengthAdjust="spacing" textLength="25" x="648" y="990.9731">opt</text><text fill="#000000" font-family="sans-serif" font-size="11" font-weight="bold" lengthAdjust="spacing" textLength="193" x="718" y="990.1167">[Publicar artefacto (si aplica)]</text><polygon fill="#2C3E50" points="1280.5,1012.1719,1290.5,1016.1719,1280.5,1020.1719,1284.5,1016.1719" style="stroke:#2C3E50;stroke-width:1.0;"/><line style="stroke:#2C3E50;stroke-width:1.0;" x1="712.5" x2="1286.5" y1="1016.1719" y2="1016.1719"/><text fill="#000000" font-family="sans-serif" font-size="13" font-weight="bold" lengthAdjust="spacing" textLength="18" x="719.5" y="1011.106">13</text><text fill="#000000" font-family="sans-serif" font-size="13" lengthAdjust="spacing" textLength="245" x="741.5" y="1011.106">mvn deploy (repo releases/snapshots)</text><polygon fill="#2C3E50" points="723.5,1041.3047,713.5,1045.3047,723.5,1049.3047,719.5,1045.3047" style="stroke:#2C3E50;stroke-width:1.0;"/><line style="stroke:#2C3E50;stroke-width:1.0;stroke-dasharray:2.0,2.0;" x1="717.5" x2="1291.5" y1="1045.3047" y2="1045.3047"/><text fill="#000000" font-family="sans-serif" font-size="13" font-weight="bold" lengthAdjust="spacing" textLength="18" x="729.5" y="1040.2388">14</text><text fill="#000000" font-family="sans-serif" font-size="13" lengthAdjust="spacing" textLength="109" x="751.5" y="1040.2388">201 Created / OK</text><rect fill="#EEEEEE" height="3" style="stroke:#EEEEEE;stroke-width:1.0;" width="2275" x="0" y="1080.8711"/><line style="stroke:#000000;stroke-width:1.0;" x1="0" x2="2275" y1="1080.8711" y2="1080.8711"/><line style="stroke:#000000;stroke-width:1.0;" x1="0" x2="2275" y1="1083.8711" y2="1083.8711"/><rect fill="#EEEEEE" height="23.1328" style="stroke:#000000;stroke-width:2.0;" width="250" x="1012.5" y="1070.3047"/><text fill="#000000" font-family="sans-serif" font-size="13" font-weight="bold" lengthAdjust="spacing" textLength="231" x="1018.5" y="1086.3716">6) Build &amp; Push imagen Docker</text><path d="M633,1110.4375 L911,1110.4375 L911,1117.5703 L901,1127.5703 L633,1127.5703 L633,1110.4375 " fill="#FBFCFC" style="stroke:#BDC3C7;stroke-width:1.5;"/><rect fill="none" height="191.9297" style="stroke:#BDC3C7;stroke-width:1.5;" width="915.5" x="633" y="1110.4375"/><text fill="#000000" font-family="sans-serif" font-size="13" font-weight="bold" lengthAdjust="spacing" textLength="233" x="648" y="1123.5044">Imagen Docker (tag inmutable)</text><polygon fill="#2C3E50" points="1468.5,1144.7031,1478.5,1148.7031,1468.5,1152.7031,1472.5,1148.7031" style="stroke:#2C3E50;stroke-width:1.0;"/><line style="stroke:#2C3E50;stroke-width:1.0;" x1="712.5" x2="1474.5" y1="1148.7031" y2="1148.7031"/><text fill="#000000" font-family="sans-serif" font-size="13" font-weight="bold" lengthAdjust="spacing" textLength="18" x="719.5" y="1143.6372">15</text><text fill="#000000" font-family="sans-serif" font-size="13" lengthAdjust="spacing" textLength="271" x="741.5" y="1143.6372">docker build -t nexus/app:${IMAGE_TAG} .</text><polygon fill="#2C3E50" points="723.5,1173.8359,713.5,1177.8359,723.5,1181.8359,719.5,1177.8359" style="stroke:#2C3E50;stroke-width:1.0;"/><line style="stroke:#2C3E50;stroke-width:1.0;stroke-dasharray:2.0,2.0;" x1="717.5" x2="1479.5" y1="1177.8359" y2="1177.8359"/><text fill="#000000" font-family="sans-serif" font-size="13" font-weight="bold" lengthAdjust="spacing" textLength="18" x="729.5" y="1172.77">16</text><text fill="#000000" font-family="sans-serif" font-size="13" lengthAdjust="spacing" textLength="96" x="751.5" y="1172.77">imagen creada</text><polygon fill="#2C3E50" points="1280.5,1202.9688,1290.5,1206.9688,1280.5,1210.9688,1284.5,1206.9688" style="stroke:#2C3E50;stroke-width:1.0;"/><line style="stroke:#2C3E50;stroke-width:1.0;" x1="712.5" x2="1286.5" y1="1206.9688" y2="1206.9688"/><text fill="#000000" font-family="sans-serif" font-size="13" font-weight="bold" lengthAdjust="spacing" textLength="18" x="719.5" y="1201.9028">17</text><text fill="#000000" font-family="sans-serif" font-size="13" lengthAdjust="spacing" textLength="219" x="741.5" y="1201.9028">docker login (credenciales Jenkins)</text><polygon fill="#2C3E50" points="723.5,1232.1016,713.5,1236.1016,723.5,1240.1016,719.5,1236.1016" style="stroke:#2C3E50;stroke-width:1.0;"/><line style="stroke:#2C3E50;stroke-width:1.0;stroke-dasharray:2.0,2.0;" x1="717.5" x2="1291.5" y1="1236.1016" y2="1236.1016"/><text fill="#000000" font-family="sans-serif" font-size="13" font-weight="bold" lengthAdjust="spacing" textLength="18" x="729.5" y="1231.0356">18</text><text fill="#000000" font-family="sans-serif" font-size="13" lengthAdjust="spacing" textLength="49" x="751.5" y="1231.0356">login ok</text><polygon fill="#2C3E50" points="1280.5,1261.2344,1290.5,1265.2344,1280.5,1269.2344,1284.5,1265.2344" style="stroke:#2C3E50;stroke-width:1.0;"/><line style="stroke:#2C3E50;stroke-width:1.0;" x1="712.5" x2="1286.5" y1="1265.2344" y2="1265.2344"/><text fill="#000000" font-family="sans-serif" font-size="13" font-weight="bold" lengthAdjust="spacing" textLength="18" x="719.5" y="1260.1685">19</text><text fill="#000000" font-family="sans-serif" font-size="13" lengthAdjust="spacing" textLength="250" x="741.5" y="1260.1685">docker push nexus/app:${IMAGE_TAG}</text><polygon fill="#2C3E50" points="723.5,1290.3672,713.5,1294.3672,723.5,1298.3672,719.5,1294.3672" style="stroke:#2C3E50;stroke-width:1.0;"/><line style="stroke:#2C3E50;stroke-width:1.0;stroke-dasharray:2.0,2.0;" x1="717.5" x2="1291.5" y1="1294.3672" y2="1294.3672"/><text fill="#000000" font-family="sans-serif" font-size="13" font-weight="bold" lengthAdjust="spacing" textLength="18" x="729.5" y="1289.3013">20</text><text fill="#000000" font-family="sans-serif" font-size="13" lengthAdjust="spacing" textLength="170" x="751.5" y="1289.3013">push ok (digest sha256:...)</text><path d="M617,1314.3672 L617,1369.3672 L1381,1369.3672 L1381,1324.3672 L1371,1314.3672 L617,1314.3672 " fill="#FEFFDD" style="stroke:#181818;stroke-width:0.5;"/><path d="M1371,1314.3672 L1371,1324.3672 L1381,1324.3672 L1371,1314.3672 " fill="#FEFFDD" style="stroke:#181818;stroke-width:0.5;"/><text fill="#000000" font-family="sans-serif" font-size="13" lengthAdjust="spacing" textLength="114" x="887.25" y="1331.4341">Buenas pr&#225;cticas:</text><text fill="#000000" font-family="sans-serif" font-size="13" lengthAdjust="spacing" textLength="215" x="887.25" y="1346.5669">- Tag: commit corto (ej. 82725b6)</text><text fill="#000000" font-family="sans-serif" font-size="13" lengthAdjust="spacing" textLength="208" x="887.25" y="1361.6997">- Opcional: "latest" solo para dev</text><rect fill="#EEEEEE" height="3" style="stroke:#EEEEEE;stroke-width:1.0;" width="2275" x="0" y="1395.332"/><line style="stroke:#000000;stroke-width:1.0;" x1="0" x2="2275" y1="1395.332" y2="1395.332"/><line style="stroke:#000000;stroke-width:1.0;" x1="0" x2="2275" y1="1398.332" y2="1398.332"/><rect fill="#EEEEEE" height="23.1328" style="stroke:#000000;stroke-width:2.0;" width="243" x="1016" y="1384.7656"/><text fill="#000000" font-family="sans-serif" font-size="13" font-weight="bold" lengthAdjust="spacing" textLength="224" x="1022" y="1400.8325">7) Deploy en DESA (Compose)</text><path d="M633,1424.8984 L761,1424.8984 L761,1432.0313 L751,1442.0313 L633,1442.0313 L633,1424.8984 " fill="#FBFCFC" style="stroke:#BDC3C7;stroke-width:1.5;"/><rect fill="none" height="191.9297" style="stroke:#BDC3C7;stroke-width:1.5;" width="1261" x="633" y="1424.8984"/><text fill="#000000" font-family="sans-serif" font-size="13" font-weight="bold" lengthAdjust="spacing" textLength="83" x="648" y="1437.9653">Despliegue</text><polygon fill="#2C3E50" points="1815,1459.1641,1825,1463.1641,1815,1467.1641,1819,1463.1641" style="stroke:#2C3E50;stroke-width:1.0;"/><line style="stroke:#2C3E50;stroke-width:1.0;" x1="712.5" x2="1821" y1="1463.1641" y2="1463.1641"/><text fill="#000000" font-family="sans-serif" font-size="13" font-weight="bold" lengthAdjust="spacing" textLength="18" x="719.5" y="1458.0981">21</text><text fill="#000000" font-family="sans-serif" font-size="13" lengthAdjust="spacing" textLength="130" x="741.5" y="1458.0981">ssh: cd /deploy/desa</text><polygon fill="#2C3E50" points="1680.5,1488.2969,1690.5,1492.2969,1680.5,1496.2969,1684.5,1492.2969" style="stroke:#2C3E50;stroke-width:1.0;"/><line style="stroke:#2C3E50;stroke-width:1.0;" x1="712.5" x2="1686.5" y1="1492.2969" y2="1492.2969"/><text fill="#000000" font-family="sans-serif" font-size="13" font-weight="bold" lengthAdjust="spacing" textLength="18" x="719.5" y="1487.231">22</text><text fill="#000000" font-family="sans-serif" font-size="13" lengthAdjust="spacing" textLength="132" x="741.5" y="1487.231">docker compose pull</text><polygon fill="#2C3E50" points="1303.5,1517.4297,1293.5,1521.4297,1303.5,1525.4297,1299.5,1521.4297" style="stroke:#2C3E50;stroke-width:1.0;"/><line style="stroke:#2C3E50;stroke-width:1.0;" x1="1297.5" x2="1691.5" y1="1521.4297" y2="1521.4297"/><text fill="#000000" font-family="sans-serif" font-size="13" font-weight="bold" lengthAdjust="spacing" textLength="18" x="1309.5" y="1516.3638">23</text><text fill="#000000" font-family="sans-serif" font-size="13" lengthAdjust="spacing" textLength="194" x="1331.5" y="1516.3638">pull nexus/app:${IMAGE_TAG}</text><polygon fill="#2C3E50" points="1680.5,1546.5625,1690.5,1550.5625,1680.5,1554.5625,1684.5,1550.5625" style="stroke:#2C3E50;stroke-width:1.0;"/><line style="stroke:#2C3E50;stroke-width:1.0;stroke-dasharray:2.0,2.0;" x1="1292.5" x2="1686.5" y1="1550.5625" y2="1550.5625"/><text fill="#000000" font-family="sans-serif" font-size="13" font-weight="bold" lengthAdjust="spacing" textLength="18" x="1299.5" y="1545.4966">24</text><text fill="#000000" font-family="sans-serif" font-size="13" lengthAdjust="spacing" textLength="57" x="1321.5" y="1545.4966">layers ok</text><polygon fill="#2C3E50" points="1491.5,1575.6953,1481.5,1579.6953,1491.5,1583.6953,1487.5,1579.6953" style="stroke:#2C3E50;stroke-width:1.0;"/><line style="stroke:#2C3E50;stroke-width:1.0;" x1="1485.5" x2="1691.5" y1="1579.6953" y2="1579.6953"/><text fill="#000000" font-family="sans-serif" font-size="13" font-weight="bold" lengthAdjust="spacing" textLength="18" x="1497.5" y="1574.6294">25</text><text fill="#000000" font-family="sans-serif" font-size="13" lengthAdjust="spacing" textLength="143" x="1519.5" y="1574.6294">docker compose up -d</text><polygon fill="#2C3E50" points="1680.5,1604.8281,1690.5,1608.8281,1680.5,1612.8281,1684.5,1608.8281" style="stroke:#2C3E50;stroke-width:1.0;"/><line style="stroke:#2C3E50;stroke-width:1.0;stroke-dasharray:2.0,2.0;" x1="1480.5" x2="1686.5" y1="1608.8281" y2="1608.8281"/><text fill="#000000" font-family="sans-serif" font-size="13" font-weight="bold" lengthAdjust="spacing" textLength="18" x="1487.5" y="1603.7622">26</text><text fill="#000000" font-family="sans-serif" font-size="13" lengthAdjust="spacing" textLength="166" x="1509.5" y="1603.7622">contenedores (re)creados</text><path d="M1697,1628.8281 L1697,1713.8281 L1934,1713.8281 L1934,1638.8281 L1924,1628.8281 L1697,1628.8281 " fill="#FEFFDD" style="stroke:#181818;stroke-width:0.5;"/><path d="M1924,1628.8281 L1924,1638.8281 L1934,1638.8281 L1924,1628.8281 " fill="#FEFFDD" style="stroke:#181818;stroke-width:0.5;"/><text fill="#000000" font-family="sans-serif" font-size="13" lengthAdjust="spacing" textLength="206" x="1703" y="1645.895">docker-compose.yml referencia:</text><text fill="#000000" font-family="sans-serif" font-size="13" lengthAdjust="spacing" textLength="216" x="1703" y="1661.0278">image: nexus/app:${IMAGE_TAG}</text><text fill="#000000" font-family="sans-serif" font-size="13" lengthAdjust="spacing" textLength="164" x="1703" y="1676.1606">Variables por ENV (desa):</text><text fill="#000000" font-family="sans-serif" font-size="13" lengthAdjust="spacing" textLength="60" x="1703" y="1691.2935">- DB_URL</text><text fill="#000000" font-family="sans-serif" font-size="13" lengthAdjust="spacing" textLength="170" x="1703" y="1706.4263">- DB_USER/PASS (secrets)</text><rect fill="#EEEEEE" height="3" style="stroke:#EEEEEE;stroke-width:1.0;" width="2275" x="0" y="1740.0586"/><line style="stroke:#000000;stroke-width:1.0;" x1="0" x2="2275" y1="1740.0586" y2="1740.0586"/><line style="stroke:#000000;stroke-width:1.0;" x1="0" x2="2275" y1="1743.0586" y2="1743.0586"/><rect fill="#EEEEEE" height="23.1328" style="stroke:#000000;stroke-width:2.0;" width="149" x="1063" y="1729.4922"/><text fill="#000000" font-family="sans-serif" font-size="13" font-weight="bold" lengthAdjust="spacing" textLength="130" x="1069" y="1745.5591">8) Arranque + DB</text><polygon fill="#2C3E50" points="2173.5,1779.7578,2183.5,1783.7578,2173.5,1787.7578,2177.5,1783.7578" style="stroke:#2C3E50;stroke-width:1.0;"/><line style="stroke:#2C3E50;stroke-width:1.0;" x1="1480.5" x2="2179.5" y1="1783.7578" y2="1783.7578"/><text fill="#000000" font-family="sans-serif" font-size="13" font-weight="bold" lengthAdjust="spacing" textLength="18" x="1487.5" y="1778.6919">27</text><text fill="#000000" font-family="sans-serif" font-size="13" lengthAdjust="spacing" textLength="90" x="1509.5" y="1778.6919">start postgres</text><polygon fill="#2C3E50" points="1988,1808.8906,1998,1812.8906,1988,1816.8906,1992,1812.8906" style="stroke:#2C3E50;stroke-width:1.0;"/><line style="stroke:#2C3E50;stroke-width:1.0;" x1="1480.5" x2="1994" y1="1812.8906" y2="1812.8906"/><text fill="#000000" font-family="sans-serif" font-size="13" font-weight="bold" lengthAdjust="spacing" textLength="18" x="1487.5" y="1807.8247">28</text><text fill="#000000" font-family="sans-serif" font-size="13" lengthAdjust="spacing" textLength="133" x="1509.5" y="1807.8247">start java -jar app.jar</text><polygon fill="#2C3E50" points="2173.5,1838.0234,2183.5,1842.0234,2173.5,1846.0234,2177.5,1842.0234" style="stroke:#2C3E50;stroke-width:1.0;"/><line style="stroke:#2C3E50;stroke-width:1.0;" x1="2000" x2="2179.5" y1="1842.0234" y2="1842.0234"/><text fill="#000000" font-family="sans-serif" font-size="13" font-weight="bold" lengthAdjust="spacing" textLength="18" x="2007" y="1836.9575">29</text><text fill="#000000" font-family="sans-serif" font-size="13" lengthAdjust="spacing" textLength="86" x="2029" y="1836.9575">JDBC connect</text><polygon fill="#2C3E50" points="2173.5,1867.1563,2183.5,1871.1563,2173.5,1875.1563,2177.5,1871.1563" style="stroke:#2C3E50;stroke-width:1.0;"/><line style="stroke:#2C3E50;stroke-width:1.0;" x1="2000" x2="2179.5" y1="1871.1563" y2="1871.1563"/><text fill="#000000" font-family="sans-serif" font-size="13" font-weight="bold" lengthAdjust="spacing" textLength="18" x="2007" y="1866.0903">30</text><text fill="#000000" font-family="sans-serif" font-size="13" lengthAdjust="spacing" textLength="95" x="2029" y="1866.0903">Flyway migrate</text><path d="M1884,1886.1563 L1948,1886.1563 L1948,1893.2891 L1938,1903.2891 L1884,1903.2891 L1884,1886.1563 " fill="#FBFCFC" style="stroke:#BDC3C7;stroke-width:1.5;"/><rect fill="none" height="155.6016" style="stroke:#BDC3C7;stroke-width:1.5;" width="381" x="1884" y="1886.1563"/><text fill="#000000" font-family="sans-serif" font-size="13" font-weight="bold" lengthAdjust="spacing" textLength="19" x="1899" y="1899.2231">alt</text><text fill="#000000" font-family="sans-serif" font-size="11" font-weight="bold" lengthAdjust="spacing" textLength="96" x="1963" y="1898.3667">[Migraci&#243;n OK]</text><polygon fill="#2C3E50" points="2011,1920.4219,2001,1924.4219,2011,1928.4219,2007,1924.4219" style="stroke:#2C3E50;stroke-width:1.0;"/><line style="stroke:#2C3E50;stroke-width:1.0;stroke-dasharray:2.0,2.0;" x1="2005" x2="2184.5" y1="1924.4219" y2="1924.4219"/><text fill="#000000" font-family="sans-serif" font-size="13" font-weight="bold" lengthAdjust="spacing" textLength="18" x="2017" y="1919.356">31</text><text fill="#000000" font-family="sans-serif" font-size="13" lengthAdjust="spacing" textLength="18" x="2039" y="1919.356">OK</text><line style="stroke:#BDC3C7;stroke-width:1.0;stroke-dasharray:2.0,2.0;" x1="1884" x2="2265" y1="1933.4219" y2="1933.4219"/><text fill="#000000" font-family="sans-serif" font-size="11" font-weight="bold" lengthAdjust="spacing" textLength="106" x="1889" y="1943.6323">[Migraci&#243;n falla]</text><polygon fill="#2C3E50" points="2011,1964.3594,2001,1968.3594,2011,1972.3594,2007,1968.3594" style="stroke:#2C3E50;stroke-width:1.0;"/><line style="stroke:#2C3E50;stroke-width:1.0;stroke-dasharray:2.0,2.0;" x1="2005" x2="2184.5" y1="1968.3594" y2="1968.3594"/><text fill="#000000" font-family="sans-serif" font-size="13" font-weight="bold" lengthAdjust="spacing" textLength="18" x="2017" y="1963.2935">32</text><text fill="#000000" font-family="sans-serif" font-size="13" lengthAdjust="spacing" textLength="31" x="2039" y="1963.2935">error</text><path d="M2005,1981.3594 L2005,2036.3594 L2156,2036.3594 L2156,1991.3594 L2146,1981.3594 L2005,1981.3594 " fill="#FEFFDD" style="stroke:#181818;stroke-width:0.5;"/><path d="M2146,1981.3594 L2146,1991.3594 L2156,1991.3594 L2146,1981.3594 " fill="#FEFFDD" style="stroke:#181818;stroke-width:0.5;"/><text fill="#000000" font-family="sans-serif" font-size="13" lengthAdjust="spacing" textLength="96" x="2011" y="1998.4263">S&#237;ntoma t&#237;pico:</text><text fill="#000000" font-family="sans-serif" font-size="13" lengthAdjust="spacing" textLength="130" x="2011" y="2013.5591">- crash / restart loop</text><text fill="#000000" font-family="sans-serif" font-size="13" lengthAdjust="spacing" textLength="127" x="2011" y="2028.6919">- logs con SQL error</text><rect fill="#EEEEEE" height="3" style="stroke:#EEEEEE;stroke-width:1.0;" width="2275" x="0" y="2069.3242"/><line style="stroke:#000000;stroke-width:1.0;" x1="0" x2="2275" y1="2069.3242" y2="2069.3242"/><line style="stroke:#000000;stroke-width:1.0;" x1="0" x2="2275" y1="2072.3242" y2="2072.3242"/><rect fill="#EEEEEE" height="23.1328" style="stroke:#000000;stroke-width:2.0;" width="123" x="1076" y="2058.7578"/><text fill="#000000" font-family="sans-serif" font-size="13" font-weight="bold" lengthAdjust="spacing" textLength="104" x="1082" y="2074.8247">9) Smoke test</text><path d="M633,2098.8906 L764,2098.8906 L764,2106.0234 L754,2116.0234 L633,2116.0234 L633,2098.8906 " fill="#FBFCFC" style="stroke:#BDC3C7;stroke-width:1.5;"/><rect fill="none" height="133.6641" style="stroke:#BDC3C7;stroke-width:1.5;" width="1483" x="633" y="2098.8906"/><text fill="#000000" font-family="sans-serif" font-size="13" font-weight="bold" lengthAdjust="spacing" textLength="86" x="648" y="2111.9575">Verificaci&#243;n</text><polygon fill="#2C3E50" points="1468.5,2133.1563,1478.5,2137.1563,1468.5,2141.1563,1472.5,2137.1563" style="stroke:#2C3E50;stroke-width:1.0;"/><line style="stroke:#2C3E50;stroke-width:1.0;" x1="712.5" x2="1474.5" y1="2137.1563" y2="2137.1563"/><text fill="#000000" font-family="sans-serif" font-size="13" font-weight="bold" lengthAdjust="spacing" textLength="18" x="719.5" y="2132.0903">33</text><text fill="#000000" font-family="sans-serif" font-size="13" lengthAdjust="spacing" textLength="350" x="741.5" y="2132.0903">docker exec app wget -qO- http://localhost:8080/health</text><polygon fill="#2C3E50" points="1988,2162.2891,1998,2166.2891,1988,2170.2891,1992,2166.2891" style="stroke:#2C3E50;stroke-width:1.0;"/><line style="stroke:#2C3E50;stroke-width:1.0;" x1="1480.5" x2="1994" y1="2166.2891" y2="2166.2891"/><text fill="#000000" font-family="sans-serif" font-size="13" font-weight="bold" lengthAdjust="spacing" textLength="18" x="1487.5" y="2161.2231">34</text><text fill="#000000" font-family="sans-serif" font-size="13" lengthAdjust="spacing" textLength="109" x="1509.5" y="2161.2231">HTTP GET /health</text><polygon fill="#2C3E50" points="1491.5,2191.4219,1481.5,2195.4219,1491.5,2199.4219,1487.5,2195.4219" style="stroke:#2C3E50;stroke-width:1.0;"/><line style="stroke:#2C3E50;stroke-width:1.0;stroke-dasharray:2.0,2.0;" x1="1485.5" x2="1999" y1="2195.4219" y2="2195.4219"/><text fill="#000000" font-family="sans-serif" font-size="13" font-weight="bold" lengthAdjust="spacing" textLength="18" x="1497.5" y="2190.356">35</text><text fill="#000000" font-family="sans-serif" font-size="13" lengthAdjust="spacing" textLength="46" x="1519.5" y="2190.356">200 OK</text><polygon fill="#2C3E50" points="723.5,2220.5547,713.5,2224.5547,723.5,2228.5547,719.5,2224.5547" style="stroke:#2C3E50;stroke-width:1.0;"/><line style="stroke:#2C3E50;stroke-width:1.0;stroke-dasharray:2.0,2.0;" x1="717.5" x2="1479.5" y1="2224.5547" y2="2224.5547"/><text fill="#000000" font-family="sans-serif" font-size="13" font-weight="bold" lengthAdjust="spacing" textLength="18" x="729.5" y="2219.4888">36</text><text fill="#000000" font-family="sans-serif" font-size="13" lengthAdjust="spacing" textLength="59" x="751.5" y="2219.4888">salida OK</text><path d="M447.5,2246.5547 L511.5,2246.5547 L511.5,2253.6875 L501.5,2263.6875 L447.5,2263.6875 L447.5,2246.5547 " fill="#FBFCFC" style="stroke:#BDC3C7;stroke-width:1.5;"/><rect fill="none" height="215.8672" style="stroke:#BDC3C7;stroke-width:1.5;" width="1482.5" x="447.5" y="2246.5547"/><text fill="#000000" font-family="sans-serif" font-size="13" font-weight="bold" lengthAdjust="spacing" textLength="19" x="462.5" y="2259.6216">alt</text><text fill="#000000" font-family="sans-serif" font-size="11" font-weight="bold" lengthAdjust="spacing" textLength="75" x="526.5" y="2258.7651">[Smoke OK]</text><polygon fill="#2C3E50" points="540.5,2280.8203,530.5,2284.8203,540.5,2288.8203,536.5,2284.8203" style="stroke:#2C3E50;stroke-width:1.0;"/><line style="stroke:#2C3E50;stroke-width:1.0;stroke-dasharray:2.0,2.0;" x1="534.5" x2="701.5" y1="2284.8203" y2="2284.8203"/><text fill="#000000" font-family="sans-serif" font-size="13" font-weight="bold" lengthAdjust="spacing" textLength="18" x="546.5" y="2279.7544">37</text><text fill="#000000" font-family="sans-serif" font-size="13" lengthAdjust="spacing" textLength="63" x="568.5" y="2279.7544">SUCCESS</text><line style="stroke:#BDC3C7;stroke-width:1.0;stroke-dasharray:2.0,2.0;" x1="447.5" x2="1930" y1="2293.8203" y2="2293.8203"/><text fill="#000000" font-family="sans-serif" font-size="11" font-weight="bold" lengthAdjust="spacing" textLength="85" x="452.5" y="2304.0308">[Smoke falla]</text><polygon fill="#2C3E50" points="540.5,2324.7578,530.5,2328.7578,540.5,2332.7578,536.5,2328.7578" style="stroke:#2C3E50;stroke-width:1.0;"/><line style="stroke:#2C3E50;stroke-width:1.0;stroke-dasharray:2.0,2.0;" x1="534.5" x2="701.5" y1="2328.7578" y2="2328.7578"/><text fill="#000000" font-family="sans-serif" font-size="13" font-weight="bold" lengthAdjust="spacing" textLength="18" x="546.5" y="2323.6919">38</text><text fill="#000000" font-family="sans-serif" font-size="13" lengthAdjust="spacing" textLength="52" x="568.5" y="2323.6919">FAILURE</text><path d="M633,2343.7578 L820,2343.7578 L820,2350.8906 L810,2360.8906 L633,2360.8906 L633,2343.7578 " fill="#FBFCFC" style="stroke:#BDC3C7;stroke-width:1.5;"/><rect fill="none" height="111.6641" style="stroke:#BDC3C7;stroke-width:1.5;" width="1287" x="633" y="2343.7578"/><text fill="#000000" font-family="sans-serif" font-size="13" font-weight="bold" lengthAdjust="spacing" textLength="142" x="648" y="2356.8247">Rollback (opcional)</text><polygon fill="#2C3E50" points="1680.5,2378.0234,1690.5,2382.0234,1680.5,2386.0234,1684.5,2382.0234" style="stroke:#2C3E50;stroke-width:1.0;"/><line style="stroke:#2C3E50;stroke-width:1.0;" x1="712.5" x2="1686.5" y1="2382.0234" y2="2382.0234"/><text fill="#000000" font-family="sans-serif" font-size="13" font-weight="bold" lengthAdjust="spacing" textLength="18" x="719.5" y="2376.9575">39</text><text fill="#000000" font-family="sans-serif" font-size="13" lengthAdjust="spacing" textLength="143" x="741.5" y="2376.9575">docker compose down</text><path d="M1697,2395.0234 L1697,2450.0234 L1910,2450.0234 L1910,2405.0234 L1900,2395.0234 L1697,2395.0234 " fill="#FEFFDD" style="stroke:#181818;stroke-width:0.5;"/><path d="M1900,2395.0234 L1900,2405.0234 L1910,2405.0234 L1900,2395.0234 " fill="#FEFFDD" style="stroke:#181818;stroke-width:0.5;"/><text fill="#000000" font-family="sans-serif" font-size="13" lengthAdjust="spacing" textLength="192" x="1703" y="2412.0903">Rollback por etiqueta anterior:</text><text fill="#000000" font-family="sans-serif" font-size="13" lengthAdjust="spacing" textLength="113" x="1703" y="2427.2231">IMAGE_TAG=prev</text><text fill="#000000" font-family="sans-serif" font-size="13" lengthAdjust="spacing" textLength="143" x="1703" y="2442.356">docker compose up -d</text><!--SRC=[ZLVTRjj65hxdKnouHLT4GijHOiSMOcCbMdBSsh5gEUbDWM14ZYHQ98UT6JanYZxCFa2l-WX-iVtcXn8bozZLZSWvltD-ldEeCvrpkc8J8PaMCXCKNxRZSufep9CbBvECKUjdNYwoKb5qHlrbbgVcuHF_lhGdvxpAnQDv6XTYmSCW-5SKHJHGEii5jKILPA9a-Mkgk1J47fSfesAPpF5CEUSo3DXIYt9PJBWCvbdAQIg4deZlWOBHYabMa9gpL7pBoXbDMQvuayB_C5vo-ZCWwaafliKY5v9-wCHl1uS7EBpAflmgAtbVo9HBJpqvx1tsZffKbYncKYpBr7CCxGyS8oPrbcGLA_M6YhVltfqS3hOOjhKCuk71y0sO-kBxRcb3U6RxU7WoF07n0gVLXbp_F7uRlr-HdadsX_4m3luA0fOWdKZE0p55U_ZdkK06ze9gxIxjNMIQMhb8M1xk6KQyNvctPrmVbnDgILu8pKdoIgpOGTXaheib5gMM8izXqx3wuzsylHalzUzbYvd_g60Fl8mwpeGbRKfT6xebsgSWPPfDcEAUGZ4a9CijXt_UL61h5-OS-oskGw_eN2GBBl4sovIMZ-7lfOtBN2ZTFJuuxbXrhke_V2X5oi_EDhLw1ODoXdgotEva9rSiYaeen-QVj_W6unvzX77usKvjZ-5FCHULSpmP8bmn3cwxOcBFu8NiqbpaB2fG8I8ouj0shgJff3wwp8Uugc9TGbLIYq7VEgWDPTMiLZA2rPdaur-lwCsHKpEQFTSIbAPWn0EtfVZQruk9kCeit7I9LHMYxojXcW6DNb5gWnGbBZ3xZqKU04-0K4WEwzB4Wb1M5alu286MPZEgKEuGA38T1hnCoLWEWjDJUXEQ2EESVg8xcSrcSERqD32j0T2gAvwwNde7OGRPQgdcmUhCqKrJhAdK6ey_0lv4fUatFfaBiQ0sZT02D8wl0yyFoRhgkyR7RFe8hleevPedcb72Yaacx3sWpbwZ4zAD1DWfpPBiwPzo9RE-orhnxRAaAgjuZZnGQ_3fowcj7OCAsGF2k6h71hJRJeEiIkOyNIAizs92eYJRb6j9rv0kiOZcN9EO-iFVX5oeYW6DywoeuFyN9ZEJ8KNwwUygIvZg1X5TNDvzZM-kho_lyD8RZRv-6ToEBsy-8GwNrxsBmTUxtWKejTURsNoBRCvviX1BRMxkdDvEnvJhP0vrISrPe23__S4b-6oLYiQbawT_qcmcQ8ffuYsz2_sqSp01OmPgAt_uYZwNiAIH3xNsmh5sgNWeAUfJadDMMXv2M1Q8v3gE3hkS02GzK45MSYNo1uvQg71pEu9LK9EZXf5x9bMx4eMgjJJkevcSSTr6S-s3BKZvbbqJKtkTtPdiISsdPeGGNhd4z3M9srAwaPV3a4RBIOuSk-fa7YiTo8OcVAOnF8yajhBGKXb0m9o6wq0wOHT8Xtvc_02e9KTC5LTjLR9ApOLMOU1taSRrEmTlA9OSzqrH1ZU_R7JIKPtOd-0E-ZOhJ8dN0s2LvykDOuinAyXfUEhfNGzQ7fmYJQNnoWIh- -EVgxh-Y_O3Bz7qrxkGmEMKFO-2LvqBZ1PgWSkLXMaity2xWk3OnU95VHQrThkvGvtb1gQrq2Yceh6KTGwFkllx- -6pShA8RmLVMqL17ts56L79f_-W43qGtB5PZRhuawOM-Fq-7NVUTmudHo4uRlpssAMzd9a-sYCqXo2p_A4k7ZPhy7rORwCcRsQ0jlni3TTfnUX4iV7PaZToM8zJe9-QmoTKJMFchXczkdK8_OX2SF8ygAcDI9lp_ntYjTgSFNAfJD8QohPBh3QAsqHfivpMUimGHkUc0cXYEYUqfINKourVRo7FPozwRigbhRXkO2kr-zALre1lnZ4G7DLY1e_9zdd_w-VRA_ym7josHxtn6DtFuPhfuerK7eTccsSb1fxPpVfsolcBdlbL0ya28W5QtIwY6Wn-fQavxja3e-ZUm8x7Bi_GqFNpUJysOIinW7UGX_dZD_P8HJOpQmZswrpJjNbnS0U8SPnHqxe17dolD1dn0PEpNRmS7ozo6umjCHW__LrgKJ0_HIqM9v8fC-8aTrVCXQXmZ9vNvXPaDZEdSXLNym2tRNnFGlUvveRJgZc-S9bDQmn_6UFuTvxOnUqRvW55Vzn4DDUwwhRR6plpGNlEON2-Ap4Vx-v6T36uevgd3ddJNEVWmCHm1s0gbcVuaFJ8xWlQvCJT2kVU-OsrQFmvZWVZiKkAutJvsCKyx5rUVRuT-CZSOe-RO8QllsZ3_mCMyDLQlj1dAuMcKxZEKEbO_B2-8mL2TeDLLvrM4a2ti_KtKkk2i4foO-IxcTuugBU__m80]--></g></svg>